<mxfile host="app.diagrams.net" modified="2022-03-12T17:05:12.280Z" agent="5.0 (Windows NT 10.0; Win64; x64) AppleWebKit/537.36 (KHTML, like Gecko) Chrome/99.0.4844.51 Safari/537.36" etag="MBsZdpdL0jfEX4VG_WCx" version="16.5.5" type="github">
  <diagram id="C5RBs43oDa-KdzZeNtuy" name="Page-1">
    <mxGraphModel dx="2791" dy="818" grid="1" gridSize="10" guides="1" tooltips="1" connect="1" arrows="1" fold="1" page="1" pageScale="1" pageWidth="827" pageHeight="1169" math="0" shadow="0">
      <root>
        <mxCell id="WIyWlLk6GJQsqaUBKTNV-0" />
        <mxCell id="WIyWlLk6GJQsqaUBKTNV-1" parent="WIyWlLk6GJQsqaUBKTNV-0" />
        <mxCell id="WIyWlLk6GJQsqaUBKTNV-2" value="" style="rounded=0;html=1;jettySize=auto;orthogonalLoop=1;fontSize=11;endArrow=block;endFill=0;endSize=8;strokeWidth=1;shadow=0;labelBackgroundColor=none;edgeStyle=orthogonalEdgeStyle;" parent="WIyWlLk6GJQsqaUBKTNV-1" source="WIyWlLk6GJQsqaUBKTNV-3" target="WIyWlLk6GJQsqaUBKTNV-6" edge="1">
          <mxGeometry relative="1" as="geometry" />
        </mxCell>
        <mxCell id="WIyWlLk6GJQsqaUBKTNV-3" value="main" style="rounded=1;whiteSpace=wrap;html=1;fontSize=12;glass=0;strokeWidth=1;shadow=0;fillColor=#FF0000;fontColor=#FFFFFF;" parent="WIyWlLk6GJQsqaUBKTNV-1" vertex="1">
          <mxGeometry x="160" y="80" width="120" height="40" as="geometry" />
        </mxCell>
        <mxCell id="WIyWlLk6GJQsqaUBKTNV-4" value="Yes" style="rounded=0;html=1;jettySize=auto;orthogonalLoop=1;fontSize=11;endArrow=block;endFill=0;endSize=8;strokeWidth=1;shadow=0;labelBackgroundColor=none;edgeStyle=orthogonalEdgeStyle;fontColor=#FFFFFF;exitX=0.5;exitY=1;exitDx=0;exitDy=0;" parent="WIyWlLk6GJQsqaUBKTNV-1" source="WIyWlLk6GJQsqaUBKTNV-6" target="WIyWlLk6GJQsqaUBKTNV-10" edge="1">
          <mxGeometry x="0.7143" y="-36" relative="1" as="geometry">
            <mxPoint x="16" y="-30" as="offset" />
            <mxPoint x="60" y="240" as="sourcePoint" />
            <Array as="points">
              <mxPoint x="220" y="240" />
              <mxPoint x="-60" y="240" />
            </Array>
          </mxGeometry>
        </mxCell>
        <mxCell id="WIyWlLk6GJQsqaUBKTNV-6" value="ejr" style="ellipse;whiteSpace=wrap;html=1;fillColor=#3333FF;fontColor=#FFFFFF;" parent="WIyWlLk6GJQsqaUBKTNV-1" vertex="1">
          <mxGeometry x="170" y="170" width="100" height="60" as="geometry" />
        </mxCell>
        <mxCell id="WIyWlLk6GJQsqaUBKTNV-10" value="1" style="rounded=0;whiteSpace=wrap;html=1;fillColor=#00FF00;" parent="WIyWlLk6GJQsqaUBKTNV-1" vertex="1">
          <mxGeometry x="-90" y="290" width="60" height="40" as="geometry" />
        </mxCell>
        <mxCell id="W4li1J_tN7EeL1bsChQa-12" value="Yes" style="rounded=0;html=1;jettySize=auto;orthogonalLoop=1;fontSize=11;endArrow=block;endFill=0;endSize=8;strokeWidth=1;shadow=0;labelBackgroundColor=none;edgeStyle=orthogonalEdgeStyle;fontColor=#FFFFFF;exitX=0.5;exitY=1;exitDx=0;exitDy=0;" edge="1" parent="WIyWlLk6GJQsqaUBKTNV-1" target="W4li1J_tN7EeL1bsChQa-13">
          <mxGeometry x="0.7143" y="-36" relative="1" as="geometry">
            <mxPoint x="16" y="-30" as="offset" />
            <mxPoint x="140" y="240" as="sourcePoint" />
          </mxGeometry>
        </mxCell>
        <mxCell id="W4li1J_tN7EeL1bsChQa-13" value="2" style="rounded=0;whiteSpace=wrap;html=1;fillColor=#00FF00;" vertex="1" parent="WIyWlLk6GJQsqaUBKTNV-1">
          <mxGeometry x="110" y="290" width="60" height="40" as="geometry" />
        </mxCell>
        <mxCell id="W4li1J_tN7EeL1bsChQa-14" value="Yes" style="rounded=0;html=1;jettySize=auto;orthogonalLoop=1;fontSize=11;endArrow=block;endFill=0;endSize=8;strokeWidth=1;shadow=0;labelBackgroundColor=none;edgeStyle=orthogonalEdgeStyle;fontColor=#FFFFFF;exitX=0.5;exitY=1;exitDx=0;exitDy=0;" edge="1" parent="WIyWlLk6GJQsqaUBKTNV-1" target="W4li1J_tN7EeL1bsChQa-15">
          <mxGeometry x="0.7143" y="-36" relative="1" as="geometry">
            <mxPoint x="16" y="-30" as="offset" />
            <mxPoint x="180" y="240" as="sourcePoint" />
          </mxGeometry>
        </mxCell>
        <mxCell id="W4li1J_tN7EeL1bsChQa-15" value="3" style="rounded=0;whiteSpace=wrap;html=1;fillColor=#00FF00;" vertex="1" parent="WIyWlLk6GJQsqaUBKTNV-1">
          <mxGeometry x="250" y="290" width="60" height="40" as="geometry" />
        </mxCell>
        <mxCell id="W4li1J_tN7EeL1bsChQa-16" value="Yes" style="rounded=0;html=1;jettySize=auto;orthogonalLoop=1;fontSize=11;endArrow=block;endFill=0;endSize=8;strokeWidth=1;shadow=0;labelBackgroundColor=none;edgeStyle=orthogonalEdgeStyle;fontColor=#FFFFFF;exitX=0.5;exitY=1;exitDx=0;exitDy=0;" edge="1" parent="WIyWlLk6GJQsqaUBKTNV-1" target="W4li1J_tN7EeL1bsChQa-17" source="WIyWlLk6GJQsqaUBKTNV-6">
          <mxGeometry x="0.7143" y="-36" relative="1" as="geometry">
            <mxPoint x="16" y="-30" as="offset" />
            <mxPoint x="320" y="240" as="sourcePoint" />
            <Array as="points">
              <mxPoint x="220" y="240" />
              <mxPoint x="400" y="240" />
            </Array>
          </mxGeometry>
        </mxCell>
        <mxCell id="W4li1J_tN7EeL1bsChQa-17" value="1&amp;lt;=ejr&amp;lt;=3" style="rounded=0;whiteSpace=wrap;html=1;fillColor=#00FF00;" vertex="1" parent="WIyWlLk6GJQsqaUBKTNV-1">
          <mxGeometry x="370" y="290" width="60" height="40" as="geometry" />
        </mxCell>
        <mxCell id="W4li1J_tN7EeL1bsChQa-18" value="Yes" style="rounded=0;html=1;jettySize=auto;orthogonalLoop=1;fontSize=11;endArrow=block;endFill=0;endSize=8;strokeWidth=1;shadow=0;labelBackgroundColor=none;edgeStyle=orthogonalEdgeStyle;fontColor=#FFFFFF;exitX=0.5;exitY=1;exitDx=0;exitDy=0;entryX=1;entryY=0.5;entryDx=0;entryDy=0;" edge="1" parent="WIyWlLk6GJQsqaUBKTNV-1" target="WIyWlLk6GJQsqaUBKTNV-6">
          <mxGeometry x="0.7143" y="-36" relative="1" as="geometry">
            <mxPoint x="16" y="-30" as="offset" />
            <mxPoint x="430" y="310" as="sourcePoint" />
            <mxPoint x="350" y="199.9999999999999" as="targetPoint" />
            <Array as="points">
              <mxPoint x="430" y="320" />
              <mxPoint x="460" y="320" />
              <mxPoint x="460" y="200" />
            </Array>
          </mxGeometry>
        </mxCell>
        <mxCell id="W4li1J_tN7EeL1bsChQa-19" value="" style="rounded=0;html=1;jettySize=auto;orthogonalLoop=1;fontSize=11;endArrow=block;endFill=0;endSize=8;strokeWidth=1;shadow=0;labelBackgroundColor=none;edgeStyle=orthogonalEdgeStyle;" edge="1" parent="WIyWlLk6GJQsqaUBKTNV-1" target="W4li1J_tN7EeL1bsChQa-21">
          <mxGeometry relative="1" as="geometry">
            <mxPoint x="-60" y="330" as="sourcePoint" />
          </mxGeometry>
        </mxCell>
        <mxCell id="W4li1J_tN7EeL1bsChQa-20" value="Yes" style="rounded=0;html=1;jettySize=auto;orthogonalLoop=1;fontSize=11;endArrow=block;endFill=0;endSize=8;strokeWidth=1;shadow=0;labelBackgroundColor=none;edgeStyle=orthogonalEdgeStyle;fontColor=#FFFFFF;entryX=0.5;entryY=0;entryDx=0;entryDy=0;" edge="1" parent="WIyWlLk6GJQsqaUBKTNV-1" target="W4li1J_tN7EeL1bsChQa-22">
          <mxGeometry x="0.7143" y="-36" relative="1" as="geometry">
            <mxPoint x="16" y="-30" as="offset" />
            <mxPoint x="-60" y="450" as="sourcePoint" />
            <Array as="points">
              <mxPoint x="-190" y="450" />
            </Array>
          </mxGeometry>
        </mxCell>
        <mxCell id="W4li1J_tN7EeL1bsChQa-21" value="apartado" style="ellipse;whiteSpace=wrap;html=1;fillColor=#FF3399;" vertex="1" parent="WIyWlLk6GJQsqaUBKTNV-1">
          <mxGeometry x="-110" y="380" width="100" height="60" as="geometry" />
        </mxCell>
        <mxCell id="W4li1J_tN7EeL1bsChQa-22" value="a" style="rounded=0;whiteSpace=wrap;html=1;fillColor=#006600;fontColor=#FFFFFF;" vertex="1" parent="WIyWlLk6GJQsqaUBKTNV-1">
          <mxGeometry x="-220" y="500" width="60" height="40" as="geometry" />
        </mxCell>
        <mxCell id="W4li1J_tN7EeL1bsChQa-23" value="Yes" style="rounded=0;html=1;jettySize=auto;orthogonalLoop=1;fontSize=11;endArrow=block;endFill=0;endSize=8;strokeWidth=1;shadow=0;labelBackgroundColor=none;edgeStyle=orthogonalEdgeStyle;fontColor=#FFFFFF;exitX=0.5;exitY=1;exitDx=0;exitDy=0;" edge="1" parent="WIyWlLk6GJQsqaUBKTNV-1">
          <mxGeometry x="0.7143" y="-36" relative="1" as="geometry">
            <mxPoint x="16" y="-30" as="offset" />
            <mxPoint x="-60.45" y="450" as="sourcePoint" />
            <mxPoint x="-60.45" y="500" as="targetPoint" />
          </mxGeometry>
        </mxCell>
        <mxCell id="W4li1J_tN7EeL1bsChQa-24" value="b" style="rounded=0;whiteSpace=wrap;html=1;fillColor=#006600;fontColor=#FFFFFF;" vertex="1" parent="WIyWlLk6GJQsqaUBKTNV-1">
          <mxGeometry x="-90" y="500" width="60" height="40" as="geometry" />
        </mxCell>
        <mxCell id="W4li1J_tN7EeL1bsChQa-27" value="Yes" style="rounded=0;html=1;jettySize=auto;orthogonalLoop=1;fontSize=11;endArrow=block;endFill=0;endSize=8;strokeWidth=1;shadow=0;labelBackgroundColor=none;edgeStyle=orthogonalEdgeStyle;fontColor=#FFFFFF;exitX=0.5;exitY=1;exitDx=0;exitDy=0;" edge="1" parent="WIyWlLk6GJQsqaUBKTNV-1" source="W4li1J_tN7EeL1bsChQa-21" target="W4li1J_tN7EeL1bsChQa-28">
          <mxGeometry x="0.7143" y="-36" relative="1" as="geometry">
            <mxPoint x="16" y="-30" as="offset" />
            <mxPoint x="-90" y="440" as="sourcePoint" />
            <Array as="points">
              <mxPoint x="-60" y="450" />
              <mxPoint x="10" y="450" />
            </Array>
          </mxGeometry>
        </mxCell>
        <mxCell id="W4li1J_tN7EeL1bsChQa-28" value="1&amp;lt;=ejr&amp;lt;=3" style="rounded=0;whiteSpace=wrap;html=1;fillColor=#006600;fontColor=#FFFFFF;" vertex="1" parent="WIyWlLk6GJQsqaUBKTNV-1">
          <mxGeometry x="-20" y="500" width="60" height="40" as="geometry" />
        </mxCell>
        <mxCell id="W4li1J_tN7EeL1bsChQa-29" value="Yes" style="rounded=0;html=1;jettySize=auto;orthogonalLoop=1;fontSize=11;endArrow=block;endFill=0;endSize=8;strokeWidth=1;shadow=0;labelBackgroundColor=none;edgeStyle=orthogonalEdgeStyle;fontColor=#FFFFFF;exitX=0.5;exitY=1;exitDx=0;exitDy=0;" edge="1" parent="WIyWlLk6GJQsqaUBKTNV-1">
          <mxGeometry x="0.7143" y="-36" relative="1" as="geometry">
            <mxPoint x="16" y="-30" as="offset" />
            <mxPoint x="40" y="520" as="sourcePoint" />
            <mxPoint x="-10" y="410" as="targetPoint" />
            <Array as="points">
              <mxPoint x="40" y="530" />
              <mxPoint x="70" y="530" />
              <mxPoint x="70" y="410" />
            </Array>
          </mxGeometry>
        </mxCell>
        <mxCell id="W4li1J_tN7EeL1bsChQa-30" value="ejercicio = ejr1a()&lt;br&gt;ejercicio.ejecutar_1a()" style="rounded=1;whiteSpace=wrap;html=1;fontColor=#000000;fillColor=#FFFF00;" vertex="1" parent="WIyWlLk6GJQsqaUBKTNV-1">
          <mxGeometry x="-250" y="580" width="120" height="60" as="geometry" />
        </mxCell>
        <mxCell id="W4li1J_tN7EeL1bsChQa-31" value="" style="rounded=0;html=1;jettySize=auto;orthogonalLoop=1;fontSize=11;endArrow=block;endFill=0;endSize=8;strokeWidth=1;shadow=0;labelBackgroundColor=none;edgeStyle=orthogonalEdgeStyle;exitX=0.5;exitY=1;exitDx=0;exitDy=0;entryX=0.5;entryY=0;entryDx=0;entryDy=0;" edge="1" parent="WIyWlLk6GJQsqaUBKTNV-1" source="W4li1J_tN7EeL1bsChQa-22" target="W4li1J_tN7EeL1bsChQa-30">
          <mxGeometry relative="1" as="geometry">
            <mxPoint x="-160.62" y="540.0000000000001" as="sourcePoint" />
            <mxPoint x="-160.62" y="590.0000000000001" as="targetPoint" />
          </mxGeometry>
        </mxCell>
        <mxCell id="W4li1J_tN7EeL1bsChQa-32" value="ejercicio = ejr1b()&lt;br&gt;ejercicio.crear(0,0,0)&lt;br&gt;ejercicio.resultado()" style="rounded=1;whiteSpace=wrap;html=1;fontColor=#000000;fillColor=#FFFF00;" vertex="1" parent="WIyWlLk6GJQsqaUBKTNV-1">
          <mxGeometry x="-120" y="580" width="120" height="60" as="geometry" />
        </mxCell>
        <mxCell id="W4li1J_tN7EeL1bsChQa-33" value="" style="rounded=0;html=1;jettySize=auto;orthogonalLoop=1;fontSize=11;endArrow=block;endFill=0;endSize=8;strokeWidth=1;shadow=0;labelBackgroundColor=none;edgeStyle=orthogonalEdgeStyle;exitX=0.5;exitY=1;exitDx=0;exitDy=0;entryX=0.5;entryY=0;entryDx=0;entryDy=0;" edge="1" parent="WIyWlLk6GJQsqaUBKTNV-1" target="W4li1J_tN7EeL1bsChQa-32">
          <mxGeometry relative="1" as="geometry">
            <mxPoint x="-60" y="540" as="sourcePoint" />
            <mxPoint x="-30.620000000000005" y="590.0000000000001" as="targetPoint" />
          </mxGeometry>
        </mxCell>
        <mxCell id="W4li1J_tN7EeL1bsChQa-34" value="ejercicio = ejr2()&lt;br&gt;ejercicio.ordenacion(1,0)" style="rounded=1;whiteSpace=wrap;html=1;fontColor=#000000;fillColor=#FFFF00;" vertex="1" parent="WIyWlLk6GJQsqaUBKTNV-1">
          <mxGeometry x="75" y="370" width="135" height="60" as="geometry" />
        </mxCell>
        <mxCell id="W4li1J_tN7EeL1bsChQa-35" value="" style="rounded=0;html=1;jettySize=auto;orthogonalLoop=1;fontSize=11;endArrow=block;endFill=0;endSize=8;strokeWidth=1;shadow=0;labelBackgroundColor=none;edgeStyle=orthogonalEdgeStyle;exitX=0.5;exitY=1;exitDx=0;exitDy=0;entryX=0.5;entryY=0;entryDx=0;entryDy=0;" edge="1" parent="WIyWlLk6GJQsqaUBKTNV-1" target="W4li1J_tN7EeL1bsChQa-34">
          <mxGeometry relative="1" as="geometry">
            <mxPoint x="140" y="330" as="sourcePoint" />
            <mxPoint x="169.38" y="380.0000000000001" as="targetPoint" />
          </mxGeometry>
        </mxCell>
        <mxCell id="W4li1J_tN7EeL1bsChQa-36" value="ejercicio = ejr3()&lt;br&gt;ejercicio.resultado()" style="rounded=1;whiteSpace=wrap;html=1;fontColor=#000000;fillColor=#FFFF00;" vertex="1" parent="WIyWlLk6GJQsqaUBKTNV-1">
          <mxGeometry x="220" y="370" width="120" height="60" as="geometry" />
        </mxCell>
        <mxCell id="W4li1J_tN7EeL1bsChQa-37" value="" style="rounded=0;html=1;jettySize=auto;orthogonalLoop=1;fontSize=11;endArrow=block;endFill=0;endSize=8;strokeWidth=1;shadow=0;labelBackgroundColor=none;edgeStyle=orthogonalEdgeStyle;exitX=0.5;exitY=1;exitDx=0;exitDy=0;entryX=0.5;entryY=0;entryDx=0;entryDy=0;" edge="1" parent="WIyWlLk6GJQsqaUBKTNV-1" target="W4li1J_tN7EeL1bsChQa-36">
          <mxGeometry relative="1" as="geometry">
            <mxPoint x="280" y="330" as="sourcePoint" />
            <mxPoint x="309.38" y="380.0000000000001" as="targetPoint" />
          </mxGeometry>
        </mxCell>
      </root>
    </mxGraphModel>
  </diagram>
</mxfile>
